<svg xmlns="http://www.w3.org/2000/svg" width="800" height="600" viewBox="0 0 800 600">
  <defs>
    <linearGradient id="bg" x1="0%" y1="0%" x2="100%" y2="100%">
      <stop offset="0%" style="stop-color:#0a1a0a"/>
      <stop offset="50%" style="stop-color:#0a1a2a"/>
      <stop offset="100%" style="stop-color:#0d1b2a"/>
    </linearGradient>
    <radialGradient id="glow1" cx="25%" cy="35%" r="40%">
      <stop offset="0%" style="stop-color:#10b981;stop-opacity:0.12"/>
      <stop offset="100%" style="stop-color:transparent;stop-opacity:0"/>
    </radialGradient>
    <radialGradient id="glow2" cx="75%" cy="65%" r="35%">
      <stop offset="0%" style="stop-color:#06b6d4;stop-opacity:0.10"/>
      <stop offset="100%" style="stop-color:transparent;stop-opacity:0"/>
    </radialGradient>
  </defs>
  <rect width="800" height="600" fill="url(#bg)"/>
  <rect width="800" height="600" fill="url(#glow1)"/>
  <rect width="800" height="600" fill="url(#glow2)"/>
  <!-- Circuit traces -->
  <g stroke="#10b981" stroke-width="0.8" fill="none" opacity="0.2">
    <path d="M0,200 H200 L220,180 H400 L420,200 H600"/>
    <path d="M100,300 H250 L270,280 H350 L370,300 H500 L520,280 H700"/>
    <path d="M50,400 H180 L200,380 H320 L340,400 H550"/>
    <path d="M200,150 V250 L220,270 V350"/>
    <path d="M500,100 V200 L520,220 V320"/>
  </g>
  <!-- Candlestick chart -->
  <g opacity="0.25">
    <line x1="480" y1="180" x2="480" y2="280" stroke="#10b981" stroke-width="1"/>
    <rect x="474" y="200" width="12" height="50" fill="#10b981" opacity="0.4"/>
    <line x1="520" y1="220" x2="520" y2="320" stroke="#ef4444" stroke-width="1"/>
    <rect x="514" y="240" width="12" height="40" fill="#ef4444" opacity="0.3"/>
    <line x1="560" y1="190" x2="560" y2="300" stroke="#10b981" stroke-width="1"/>
    <rect x="554" y="210" width="12" height="60" fill="#10b981" opacity="0.4"/>
    <line x1="600" y1="210" x2="600" y2="290" stroke="#10b981" stroke-width="1"/>
    <rect x="594" y="220" width="12" height="40" fill="#10b981" opacity="0.4"/>
    <line x1="640" y1="200" x2="640" y2="310" stroke="#ef4444" stroke-width="1"/>
    <rect x="634" y="230" width="12" height="50" fill="#ef4444" opacity="0.3"/>
  </g>
  <!-- Code snippets -->
  <g fill="#06b6d4" opacity="0.15" font-family="monospace" font-size="11">
    <text x="80" y="120">def price(S, K, T, r, σ):</text>
    <text x="100" y="140">d1 = (ln(S/K) + r*T) / σ√T</text>
    <text x="100" y="160">return S*N(d1) - K*e^(-rT)</text>
    <text x="80" y="480">import numpy as np</text>
    <text x="80" y="500">from scipy.stats import norm</text>
  </g>
  <!-- Node dots -->
  <g fill="#10b981" opacity="0.3">
    <circle cx="200" cy="200" r="3"/>
    <circle cx="400" cy="200" r="3"/>
    <circle cx="500" cy="300" r="3"/>
    <circle cx="250" cy="300" r="3"/>
    <circle cx="350" cy="400" r="3"/>
    <circle cx="200" cy="150" r="2"/>
    <circle cx="500" cy="100" r="2"/>
    <circle cx="500" cy="280" r="2"/>
  </g>
</svg>
